<svg width="69" height="42" viewBox="0 0 69 42" fill="none" xmlns="http://www.w3.org/2000/svg">
<rect x="0.8125" y="-0.00292969" width="68" height="42" rx="10" fill="#EAEAEA"/>
<g clip-path="url(#clip0_424_1138)">
<path d="M46.8125 20.9971C46.8125 14.3694 41.4397 8.99707 34.8125 8.99707C28.1853 8.99707 22.8125 14.3694 22.8125 20.9971C22.8125 26.9864 27.2009 31.9511 32.9374 32.8512V24.466H29.8904V20.9971H32.9374V18.3535C32.9374 15.3458 34.7292 13.6848 37.4698 13.6848C38.7828 13.6848 40.156 13.9215 40.156 13.9215V16.8743H38.6431C37.1521 16.8743 36.6876 17.7995 36.6876 18.7484V20.9994H40.0154L39.4836 24.4683H36.6862V32.8512C42.4241 31.9511 46.8125 26.9864 46.8125 20.9971Z" fill="#1877F2"/>
<path d="M39.4838 24.4658L40.0156 20.9969H36.6863V18.7458C36.6863 17.7988 37.1509 16.8717 38.6419 16.8717H40.1548V13.9213C40.1548 13.9213 38.7816 13.6846 37.4686 13.6846C34.7279 13.6846 32.9362 15.3456 32.9362 18.3533V20.9969H29.8906V24.4658H32.9376V32.851C34.1801 33.0455 35.4453 33.0455 36.6878 32.851V24.4658H39.4838Z" fill="white"/>
</g>
<defs>
<clipPath id="clip0_424_1138">
<rect width="24" height="24" fill="white" transform="translate(22.8125 8.99707)"/>
</clipPath>
</defs>
</svg>
