<svg width="69" height="42" viewBox="0 0 69 42" fill="none" xmlns="http://www.w3.org/2000/svg">
<rect x="0.8125" y="-0.00292969" width="68" height="42" rx="10" fill="#EAEAEA"/>
<path d="M46.3519 21.2695C46.3519 20.4186 46.2756 19.6004 46.1338 18.8149H34.832V23.4622H41.2902C41.0065 24.9567 40.1556 26.2222 38.8793 27.0731V30.0948H42.7738C45.0429 28.0003 46.3519 24.924 46.3519 21.2695Z" fill="#4285F4"/>
<path d="M34.8318 32.9971C38.0717 32.9971 40.7881 31.928 42.7735 30.0953L38.879 27.0735C37.8099 27.7935 36.4463 28.2299 34.8318 28.2299C31.7118 28.2299 29.0609 26.1244 28.1118 23.2881H24.1191V26.3862C26.0937 30.3026 30.1409 32.9971 34.8318 32.9971Z" fill="#34A853"/>
<path d="M28.112 23.2768C27.872 22.5568 27.7302 21.7931 27.7302 20.9968C27.7302 20.2004 27.872 19.4368 28.112 18.7168V15.6187H24.1193C23.3011 17.2332 22.832 19.055 22.832 20.9968C22.832 22.9386 23.3011 24.7604 24.1193 26.3749L27.2284 23.9531L28.112 23.2768Z" fill="#FBBC05"/>
<path d="M34.8318 13.7752C36.599 13.7752 38.1699 14.3861 39.4245 15.5643L42.8608 12.128C40.7772 10.1862 38.0717 8.99707 34.8318 8.99707C30.1409 8.99707 26.0937 11.6916 24.1191 15.6188L28.1118 18.717C29.0609 15.8806 31.7118 13.7752 34.8318 13.7752Z" fill="#EA4335"/>
</svg>
