<svg width="69" height="42" viewBox="0 0 69 42" fill="none" xmlns="http://www.w3.org/2000/svg">
<rect x="0.8125" y="-0.00292969" width="68" height="42" rx="10" fill="#EAEAEA"/>
<g clip-path="url(#clip0_424_1139)">
<path fill-rule="evenodd" clip-rule="evenodd" d="M27.7344 8.99707H41.8906C43.1949 9.00068 44.4447 9.52039 45.3669 10.4426C46.2892 11.3649 46.8089 12.6147 46.8125 13.9189V28.0752C46.8089 29.3794 46.2892 30.6293 45.3669 31.5515C44.4447 32.4738 43.1949 32.9935 41.8906 32.9971H27.7344C26.4301 32.9935 25.1803 32.4738 24.2581 31.5515C23.3358 30.6293 22.8161 29.3794 22.8125 28.0752V13.9189C22.8161 12.6147 23.3358 11.3649 24.2581 10.4426C25.1803 9.52039 26.4301 9.00068 27.7344 8.99707Z" fill="#0077B5"/>
<path fill-rule="evenodd" clip-rule="evenodd" d="M28.7559 18.835H31.3516V26.6201H28.7559V18.835Z" fill="white"/>
<path fill-rule="evenodd" clip-rule="evenodd" d="M31.3516 16.6709C31.3519 16.9279 31.2761 17.1793 31.1335 17.3932C30.9909 17.6071 30.7881 17.7739 30.5507 17.8724C30.3133 17.971 30.052 17.9969 29.7998 17.9468C29.5477 17.8968 29.3161 17.773 29.1343 17.5913C28.9526 17.4095 28.8288 17.1779 28.7788 16.9258C28.7287 16.6736 28.7546 16.4123 28.8531 16.1749C28.9517 15.9375 29.1185 15.7347 29.3324 15.5921C29.5463 15.4495 29.7976 15.3736 30.0547 15.374C30.3986 15.374 30.7285 15.5107 30.9717 15.7539C31.2149 15.9971 31.3516 16.3269 31.3516 16.6709Z" fill="white"/>
<path fill-rule="evenodd" clip-rule="evenodd" d="M33.082 18.835H35.4766V20.0615H35.5078C35.8418 19.4639 36.6563 18.835 37.873 18.835C40.3984 18.835 40.8672 20.4072 40.8672 22.4521V26.6201H38.373V22.9268C38.373 22.0459 38.3555 20.9111 37.0703 20.9111C35.7852 20.9111 35.5723 21.8701 35.5723 22.8643V26.6201H33.082V18.835Z" fill="white"/>
</g>
<defs>
<clipPath id="clip0_424_1139">
<rect width="24" height="24" fill="white" transform="translate(22.8125 8.99707)"/>
</clipPath>
</defs>
</svg>
