<svg width="27" height="18" viewBox="0 0 27 18" fill="none" xmlns="http://www.w3.org/2000/svg">
<path fill-rule="evenodd" clip-rule="evenodd" d="M17.5587 10.4116C17.7973 9.87095 17.9306 9.26915 17.9306 8.99835C17.9306 6.65115 16.107 4.74805 13.8578 4.74805C11.6087 4.74805 9.78516 6.65115 9.78516 8.99835C9.78516 11.3454 11.8215 12.8853 13.8578 12.8853C15.1604 12.8853 16.3198 12.2482 17.0635 11.2562C17.2584 10.9968 17.4255 10.7135 17.5587 10.4116ZM13.8578 10.7602C14.3669 10.7602 14.8323 10.5651 15.1902 10.2424C15.6218 9.85335 15.8118 9.27745 15.8118 8.99835C15.8118 7.82475 14.9834 6.87315 13.8578 6.87315C12.7323 6.87315 11.8118 7.82315 11.8118 8.99675C11.8118 9.80715 12.7323 10.7602 13.8578 10.7602Z" fill="black" fill-opacity="0.4"/>
<path fill-rule="evenodd" clip-rule="evenodd" d="M0.90462 9.26947C0.88871 9.24977 0.92053 9.29017 0.90462 9.26947C0.78014 9.09917 0.783273 8.89667 0.90518 8.72437C0.91411 8.71177 0.92321 8.69867 0.93243 8.68527C4.5935 3.34026 9.13355 0.49707 13.8267 0.49707C18.515 0.49707 23.051 3.33261 26.7081 8.66687C26.7775 8.76807 26.8125 8.87207 26.8125 8.99657C26.8125 9.12717 26.7718 9.23697 26.6988 9.34317C23.0427 14.6673 18.5107 17.4971 13.8267 17.4971C9.12162 17.4971 4.56967 14.6404 0.90462 9.26947ZM3.75159 8.34957C3.4506 8.72377 3.4506 9.26927 3.75158 9.64357C6.88667 13.5414 10.4167 15.372 13.8267 15.372C17.2368 15.372 20.7668 13.5414 23.9019 9.64357C24.2029 9.26927 24.2029 8.72377 23.9019 8.34957C20.7668 4.45182 17.2368 2.6222 13.8267 2.6222C10.4167 2.6222 6.88667 4.45182 3.75159 8.34957Z" fill="black" fill-opacity="0.4"/>
</svg>
