<svg width="21" height="16" viewBox="0 0 21 16" fill="none" xmlns="http://www.w3.org/2000/svg">
<path fill-rule="evenodd" clip-rule="evenodd" d="M1.24278 1.48949H2.47002V0H9.63995V1.48949H19.7516V3.4816L1.24278 2.59597V1.48949ZM9.86793 5.95472C10.8294 5.95472 11.7017 6.34419 12.3332 6.97051C12.9646 7.59938 13.3536 8.4651 13.3536 9.42492C13.3536 10.1251 13.1439 10.7795 12.7859 11.3245L14.2949 12.9615L13.2538 13.9087L11.7988 12.3147C11.2464 12.6814 10.5813 12.8953 9.86793 12.8953C8.90645 12.8953 8.03434 12.5058 7.40253 11.8793C6.77088 11.2504 6.38208 10.3847 6.38208 9.42475C6.38208 8.46748 6.77344 7.59921 7.40253 6.97034C8.03417 6.34164 8.90371 5.95472 9.86793 5.95472ZM11.8733 7.42855C11.3602 6.91776 10.6506 6.60044 9.86793 6.60044C9.08538 6.60044 8.37563 6.91759 7.86259 7.42855C7.34955 7.93934 7.03082 8.64614 7.03082 9.42509C7.03082 10.2042 7.34955 10.9108 7.86259 11.4216C8.37563 11.9326 9.08555 12.2497 9.86793 12.2497C10.6506 12.2497 11.3602 11.9326 11.8733 11.4216C12.3863 10.9108 12.705 10.2042 12.705 9.42509C12.705 8.64597 12.3863 7.93934 11.8733 7.42855ZM0 3.67744H21L19.4496 15.0261C19.3771 15.5556 19.0077 16 18.4709 16H2.17641C1.63893 16 1.25338 15.5586 1.19715 15.0252L0 3.67744Z" fill="black"/>
</svg>
