<svg width="16" height="18" viewBox="0 0 16 18" fill="none" xmlns="http://www.w3.org/2000/svg">
<path d="M2.65067 17H14.0792C14.7104 17 15.2221 16.4883 15.2221 15.8571V4.42857L11.7935 1H2.65067C2.01949 1 1.50781 1.51168 1.50781 2.14286V15.8571C1.50781 16.4883 2.01949 17 2.65067 17Z" fill="black"/>
<path d="M4.93638 8.99477H11.7935M4.93638 12.4211L11.7935 12.4286M4.93638 5.56843L9.50781 5.57143M14.0792 17H2.65067C2.01949 17 1.50781 16.4883 1.50781 15.8571V2.14286C1.50781 1.51168 2.01949 1 2.65067 1H11.7935L15.2221 4.42857V15.8571C15.2221 16.4883 14.7104 17 14.0792 17Z" stroke="white" stroke-width="1.4" stroke-linecap="square"/>
</svg>
