<svg width="25" height="25" viewBox="0 0 25 25" fill="none" xmlns="http://www.w3.org/2000/svg">
<circle cx="12.3292" cy="12.5304" r="11.8566" fill="#084380"/>
<path d="M16.1777 11.0732C16.1497 11.0133 16.1048 10.9624 16.0481 10.9266C15.9916 10.8908 15.9257 10.8717 15.8582 10.8713H13.1139L14.2858 7.82127C14.3262 7.71545 14.3111 7.59692 14.2453 7.50403C14.1795 7.41115 14.0713 7.3557 13.9558 7.35547H11.1108C11.0424 7.35539 10.9754 7.3748 10.9181 7.41123C10.8608 7.44766 10.8155 7.49964 10.7878 7.56079L8.4775 12.6586C8.42928 12.765 8.4392 12.8881 8.50397 12.9858C8.56873 13.0836 8.67959 13.1428 8.79872 13.1433H11.1812L10.0588 17.2735C10.032 17.3744 10.0534 17.4818 10.1169 17.5655C10.1805 17.6493 10.2795 17.7004 10.3861 17.7047C10.4927 17.709 10.5955 17.6658 10.6659 17.5874L16.1229 11.4425C16.1673 11.3925 16.1961 11.3312 16.2057 11.2657C16.2154 11.2002 16.2057 11.1334 16.1777 11.0732Z" fill="#F9F9F9"/>
</svg>
