<svg width="11" height="11" viewBox="0 0 11 11" fill="none" xmlns="http://www.w3.org/2000/svg">
<g clip-path="url(#clip0_390_1953)">
<path fill-rule="evenodd" clip-rule="evenodd" d="M1.61083 1.61112C-0.537002 3.75903 -0.537002 7.2415 1.61083 9.38942C3.75874 11.5372 7.24121 11.5372 9.38913 9.38942C11.537 7.2415 11.537 3.75903 9.38913 1.61112C7.24121 -0.536713 3.75874 -0.536713 1.61083 1.61112ZM2.62042 5.18776C2.44783 5.18776 2.308 5.32767 2.308 5.50018C2.308 5.67277 2.44792 5.8126 2.62042 5.8126H5.18756V8.37982C5.18756 8.55241 5.32748 8.69224 5.49998 8.69224C5.67248 8.69224 5.81231 8.55233 5.81231 8.37982V5.81269H8.37962C8.55222 5.81269 8.69213 5.67277 8.69213 5.50027C8.69213 5.32776 8.55222 5.18785 8.37962 5.18785H5.8124V2.62053C5.8124 2.44803 5.67248 2.30811 5.50007 2.30811C5.32748 2.30811 5.18765 2.44803 5.18765 2.62053V5.18776H2.62042Z" fill="#084380"/>
</g>
<defs>
<clipPath id="clip0_390_1953">
<rect width="11" height="11" fill="white" transform="matrix(-1 0 0 1 11 0)"/>
</clipPath>
</defs>
</svg>
